HIERARCHY
ROOT hip
{
	OFFSET 0.000000 0.000000 0.000000
	CHANNELS 6 Xposition Yposition Zposition Xrotation Zrotation Yrotation 
	JOINT abdomen
	{
		OFFSET 0.000000 3.422050 0.000000
		CHANNELS 3 Xrotation Zrotation Yrotation 
		JOINT chest
		{
			OFFSET 0.000000 8.486693 -0.684411
			CHANNELS 3 Xrotation Zrotation Yrotation 
			JOINT neck
			{
				OFFSET 0.000000 10.266162 -0.273764
				CHANNELS 3 Xrotation Zrotation Yrotation 
				JOINT head
				{
					OFFSET 0.000000 3.148285 0.000000
					CHANNELS 3 Xrotation Zrotation Yrotation 
					End Site
					{
						OFFSET 0.000000 3.148289 0.000000
					}
				}
			}
			JOINT lCollar
			{
				OFFSET 3.422053 6.707223 -0.821293
				CHANNELS 3 Yrotation Zrotation Xrotation 
				JOINT lShldr
				{
					OFFSET 3.285171 0.000000 0.000000
					CHANNELS 3 Zrotation Yrotation Xrotation 
					JOINT lForeArm
					{
						OFFSET 10.129278 0.000000 0.000000
						CHANNELS 3 Yrotation Zrotation Xrotation 
						JOINT lHand
						{
							OFFSET 8.486692 0.000000 0.000000
							CHANNELS 3 Zrotation Yrotation Xrotation 
							End Site
							{
								OFFSET 4.106464 0.000000 0.000000
							}
						}
					}
				}
			}
			JOINT rCollar
			{
				OFFSET -3.558935 6.707223 -0.821293
				CHANNELS 3 Yrotation Zrotation Xrotation 
				JOINT rShldr
				{
					OFFSET -3.148289 0.000000 0.000000
					CHANNELS 3 Zrotation Yrotation Xrotation 
					JOINT rForeArm
					{
						OFFSET -10.266159 0.000000 0.000000
						CHANNELS 3 Yrotation Zrotation Xrotation 
						JOINT rHand
						{
							OFFSET -8.349810 0.000000 0.000000
							CHANNELS 3 Zrotation Yrotation Xrotation 
							End Site
							{
								OFFSET -4.106464 0.000000 0.000000
							}
						}
					}
				}
			}
		}
	}
	JOINT lThigh
	{
		OFFSET 5.338403 -1.642589 1.368821
		CHANNELS 3 Xrotation Zrotation Yrotation 
		JOINT lShin
		{
			OFFSET -2.053232 -20.121670 0.000000
			CHANNELS 3 Xrotation Zrotation Yrotation 
			JOINT lFoot
			{
				OFFSET 0.000000 -19.300380 -1.231939
				CHANNELS 3 Xrotation Yrotation Zrotation 
				End Site
				{
					OFFSET 0.000000 -2.463878 4.653993
				}
			}
		}
	}
	JOINT rThigh
	{
		OFFSET -5.338403 -1.642589 1.368821
		CHANNELS 3 Xrotation Zrotation Yrotation 
		JOINT rShin
		{
			OFFSET 2.053232 -20.121670 0.000000
			CHANNELS 3 Xrotation Zrotation Yrotation 
			JOINT rFoot
			{
				OFFSET 0.000000 -19.300380 -1.231939
				CHANNELS 3 Xrotation Yrotation Zrotation 
				End Site
				{
					OFFSET 0.000000 -2.463878 4.653993
				}
			}
		}
	}
}
MOTION
Frames: 11
Frame Time: 0.022176
0.000000 43.528500 0.000000 0.000000 0.000000 0.000000 0.000000 0.000000 0.000000 0.000000 0.000000 0.000000 0.000000 0.000000 0.000000 0.000000 0.000000 0.000000 0.000000 0.000000 0.000000 0.000000 0.000000 0.000000 0.000000 0.000000 0.000000 0.000000 0.000000 0.000000 0.000000 0.000000 0.000000 0.000000 0.000000 0.000000 0.000000 0.000000 0.000000 0.000000 0.000000 0.000000 0.000000 0.000000 0.000000 0.000000 0.000000 0.000000 0.000000 0.000000 0.000000 0.000000 0.000000 0.000000 0.000000 0.000000 0.000000 0.000000 0.000000 0.000000 
0.000000 5.648346 0.952190 -98.002960 0.000000 0.000000 12.472582 -0.020507 -0.021589 -7.809061 -0.149323 -0.724162 39.997601 0.000000 0.000000 8.998567 0.000000 0.000000 -4.556431 -24.094343 5.588388 -50.172016 -30.428886 -12.037725 2.010158 -7.584834 34.583122 -53.196281 5.360813 -60.682961 6.355723 26.648178 4.457839 48.045689 29.554905 -13.051943 -1.845667 6.560116 34.546169 54.244526 -6.287657 -59.757908 -17.119450 24.127621 39.409042 66.777435 32.809387 3.553659 19.427650 7.065598 -4.778546 -17.114496 -24.145142 -39.427971 66.795052 -32.838066 -3.547834 19.413671 -7.081759 4.769720 
0.000000 5.746469 0.952190 -97.226845 0.000000 0.000000 11.256606 -0.020542 -0.021565 -7.809061 -0.149323 -0.724162 39.997604 0.000000 0.000000 8.821548 0.035861 0.043627 -3.815841 -23.528389 6.572259 -50.764374 -30.618774 -11.734823 2.052565 -8.092964 34.596184 -52.762470 5.456317 -60.533855 5.476855 25.978014 5.544291 48.741684 29.799999 -12.704239 -1.897329 7.121982 34.558529 53.749390 -6.328137 -59.655384 -17.771484 24.052271 39.256252 66.777435 32.809391 3.553658 19.389606 7.140067 -4.994646 -17.766647 -24.070013 -39.274605 66.795067 -32.838070 -3.547835 19.375683 -7.156152 4.986386 
0.000000 5.844591 0.952190 -96.450157 0.000000 0.000000 10.038420 -0.020577 -0.021541 -7.809061 -0.149323 -0.724162 39.997601 0.000000 0.000000 8.644466 0.071875 0.087165 -3.087974 -22.950056 7.545381 -51.359276 -30.806025 -11.428949 2.095158 -8.601245 34.609638 -52.328243 5.550723 -60.383976 4.615543 25.291822 6.615131 49.441444 30.041521 -12.352090 -1.949200 7.684057 34.571430 53.253994 -6.367746 -59.552483 -18.423210 23.975302 39.104431 66.777435 32.809387 3.553659 19.351835 7.214681 -5.210745 -18.418488 -23.993265 -39.122200 66.795052 -32.838066 -3.547832 19.337971 -7.230694 5.203053 
0.000000 5.942714 0.952190 -95.672951 0.000000 0.000000 8.818288 -0.020612 -0.021516 -7.809061 -0.149323 -0.724162 39.997604 0.000000 0.000000 8.467319 0.108041 0.130614 -2.372972 -22.359724 8.507632 -51.956684 -30.990591 -11.120132 2.137944 -9.109661 34.623512 -51.893589 5.644008 -60.233299 3.771917 24.590166 7.670250 50.144943 30.279396 -11.995533 -2.001288 8.246309 34.584862 52.758343 -6.406479 -59.449181 -19.074579 23.896730 38.953606 66.777435 32.809391 3.553657 19.314335 7.289440 -5.426843 -19.069969 -23.914902 -38.970795 66.795067 -32.838070 -3.547835 19.300531 -7.305381 5.419718 
0.000000 6.040837 0.952190 -94.895340 0.000000 0.000000 7.596488 -0.020646 -0.021490 -7.809061 -0.149323 -0.724162 39.997601 0.000000 0.000000 8.290115 0.144360 0.173972 -1.670948 -21.757765 9.458923 -52.556549 -31.172409 -10.808400 2.180926 -9.618184 34.637791 -51.458546 5.736177 -60.081882 2.946069 23.873617 8.709587 50.852116 30.513550 -11.634605 -2.053600 8.808711 34.598827 52.262486 -6.444329 -59.345528 -19.725542 23.816572 38.803818 66.777435 32.809387 3.553660 19.277111 7.364343 -5.642938 -19.721050 -23.834951 -38.820423 66.795052 -32.838066 -3.547834 19.263376 -7.380211 5.636383 
0.000000 6.138959 0.952190 -94.117348 0.000000 0.000000 6.373291 -0.020679 -0.021463 -7.809061 -0.149323 -0.724162 39.997601 0.000000 0.000000 8.112849 0.180831 0.217239 -0.981997 -21.144547 10.399176 -53.158859 -31.351477 -10.493790 2.224113 -10.126797 34.652477 -51.023121 5.827206 -59.929718 2.138053 23.142750 9.733112 51.562920 30.743904 -11.269358 -2.106147 9.371238 34.613338 51.766422 -6.481296 -59.241508 -20.376059 23.734840 38.655083 66.777435 32.809387 3.553661 19.240168 7.439387 -5.859030 -20.371681 -23.753416 -38.671089 66.795052 -32.838066 -3.547834 19.226490 -7.455182 5.853045 
0.000000 6.237082 0.952190 -93.339081 0.000000 0.000000 5.148977 -0.020712 -0.021435 -7.809061 -0.149323 -0.724162 39.997601 0.000000 0.000000 7.935523 0.217453 0.260415 -0.306192 -20.520477 11.328349 -53.763546 -31.527719 -10.176332 2.267509 -10.635479 34.667583 -50.587322 5.917099 -59.776806 1.347888 22.398153 10.740840 52.277317 30.970400 -10.899838 -2.158938 9.933863 34.628414 51.270187 -6.517368 -59.137165 -21.026068 23.651543 38.507423 66.777435 32.809387 3.553659 19.203501 7.514572 -6.075118 -21.021809 -23.670313 -38.522842 66.795052 -32.838066 -3.547834 19.189888 -7.530295 6.069701 
0.000000 6.335205 0.952190 -92.560600 0.000000 0.000000 3.923822 -0.020744 -0.021407 -7.809061 -0.149323 -0.724162 39.997604 0.000000 0.000000 7.758139 0.254227 0.303497 0.356417 -19.885942 12.246409 -54.370613 -31.701118 -9.856066 2.311121 -11.144213 34.683102 -50.151184 6.005837 -59.623180 0.575558 21.640402 11.732806 52.995228 31.192949 -10.526097 -2.211979 10.496554 34.644035 50.773796 -6.552548 -59.032494 -21.675547 23.566713 38.360886 66.777435 32.809387 3.553659 19.167112 7.589897 -6.291201 -21.671396 -23.585665 -38.375698 66.795052 -32.838066 -3.547834 19.153563 -7.605546 6.286353 
0.000000 6.433328 0.952190 -91.781982 0.000000 0.000000 2.698107 -0.020776 -0.021378 -7.809061 -0.149323 -0.724162 39.997601 0.000000 0.000000 7.580699 0.291152 0.346487 1.005799 -19.241337 13.153352 -54.979992 -31.871626 -9.533028 2.354956 -11.652974 34.699055 -49.714691 6.093414 -59.468834 -0.178984 20.870102 12.709090 53.716606 31.411493 -10.148195 -2.265281 11.059286 34.660221 50.277279 -6.586828 -58.927498 -22.324432 23.480352 38.215477 66.777435 32.809391 3.553658 19.131002 7.665357 -6.507277 -22.320396 -23.499481 -38.229694 66.795052 -32.838066 -3.547832 19.117521 -7.680934 6.503000 
0.000000 6.531450 0.952190 -91.003273 0.000000 0.000000 1.472111 -0.020807 -0.021348 -7.809061 -0.149323 -0.724162 39.997604 0.000000 0.000000 7.403199 0.328227 0.389382 1.641940 -18.587059 14.049187 -55.591648 -32.039215 -9.207263 2.399020 -12.161743 34.715439 -49.277885 6.179823 -59.313808 -0.915811 20.087831 13.669791 54.441380 31.625959 -9.766191 -2.318854 11.622032 34.676975 49.780628 -6.620205 -58.822189 -22.972687 23.392485 38.071232 66.777435 32.809387 3.553659 19.095177 7.740952 -6.723345 -22.968771 -23.411791 -38.084862 66.795067 -32.838070 -3.547835 19.081758 -7.756458 6.719637 
